<?xml version="1.0" encoding="utf-8"?>
<!-- Generator: Adobe Illustrator 27.1.1, SVG Export Plug-In . SVG Version: 6.00 Build 0)  -->
<svg version="1.1" id="Layer_1" xmlns="http://www.w3.org/2000/svg" xmlns:xlink="http://www.w3.org/1999/xlink" x="0px" y="0px"
	 viewBox="0 0 512 512" style="enable-background:new 0 0 512 512;" xml:space="preserve">
<style type="text/css">
	
		.st0{clip-path:url(#SVGID_00000114058269481298950570000002521523566122327958_);fill:#ED1C24;stroke:#FFFF00;stroke-width:1.1976;stroke-miterlimit:10;}
	
		.st1{clip-path:url(#SVGID_00000075864584722105746040000002942056858983742634_);fill:#FFFF00;stroke:#FFFF00;stroke-width:1.1976;stroke-miterlimit:10;}
</style>
<g>
	<g>
		<defs>
			<circle id="SVGID_1_" cx="256" cy="256" r="251.5"/>
		</defs>
		<clipPath id="SVGID_00000053547576077032901780000005395637853468428430_">
			<use xlink:href="#SVGID_1_"  style="overflow:visible;"/>
		</clipPath>
		
			<path style="clip-path:url(#SVGID_00000053547576077032901780000005395637853468428430_);fill:#ED1C24;stroke:#FFFF00;stroke-width:1.1976;stroke-miterlimit:10;" d="
			M638.6,511.7h-766.5V1.5h766.5V511.7z M355.1,392.3c-1.1-3.6-1.7-5.4-2.3-7.3c-11.2-34.3-22.3-68.7-33.7-102.9
			c-1.7-5.1-0.7-7.6,3.6-10.7c29.3-20.8,58.3-42,87.4-63c1.7-1.2,3.2-2.5,6.3-4.9c-4.1,0-6.3,0-8.4,0c-35.9,0-71.9-0.1-107.8,0.1
			c-5,0-7.3-1.5-8.8-6.4c-11-34.6-22.4-69.1-33.7-103.6c-0.6-1.8-1.3-3.5-2.4-6.3c-1,2.9-1.6,4.5-2.2,6.2
			c-11.2,34.3-22.6,68.6-33.5,103c-1.8,5.7-4.5,7.1-10.1,7.1c-35.7-0.2-71.5-0.1-107.2-0.1c-2.1,0-4.2,0.2-7.6,0.3
			c2.9,2.2,4.5,3.5,6.2,4.8c29.3,21.2,58.5,42.4,87.9,63.4c3.8,2.7,4.4,5,3,9.4c-9.6,28.6-18.8,57.2-28.2,85.8
			c-2.6,7.9-5.1,15.8-8,25c3.1-2.2,5.1-3.5,7-4.9c29.4-21.3,58.9-42.5,88.3-63.9c3.3-2.4,5.5-2.6,8.8-0.1
			c12.3,9.2,24.8,18.1,37.3,27.1C315.9,364,334.8,377.7,355.1,392.3z"/>
	</g>
	<g>
		<defs>
			<circle id="SVGID_00000172442040997972018170000014729797902491399839_" cx="256" cy="256" r="251.5"/>
		</defs>
		<clipPath id="SVGID_00000091695385546533946220000004985810290905136570_">
			<use xlink:href="#SVGID_00000172442040997972018170000014729797902491399839_"  style="overflow:visible;"/>
		</clipPath>
		
			<path style="clip-path:url(#SVGID_00000091695385546533946220000004985810290905136570_);fill:#FFFF00;stroke:#FFFF00;stroke-width:1.1976;stroke-miterlimit:10;" d="
			M355.1,392.3c-20.3-14.6-39.2-28.3-58.1-42c-12.5-9-25-17.9-37.3-27.1c-3.4-2.5-5.5-2.3-8.8,0.1c-29.4,21.4-58.8,42.6-88.3,63.9
			c-1.9,1.4-3.9,2.7-7,4.9c2.9-9.2,5.5-17.1,8-25c9.4-28.6,18.6-57.3,28.2-85.8c1.4-4.3,0.8-6.7-3-9.4c-29.4-21-58.6-42.2-87.9-63.4
			c-1.7-1.2-3.4-2.6-6.2-4.8c3.5-0.2,5.5-0.3,7.6-0.3c35.7,0,71.5-0.1,107.2,0.1c5.6,0,8.3-1.4,10.1-7.1
			c10.9-34.4,22.2-68.7,33.5-103c0.5-1.7,1.2-3.3,2.2-6.2c1.1,2.8,1.9,4.5,2.4,6.3c11.3,34.5,22.6,69,33.7,103.6
			c1.5,4.9,3.8,6.4,8.8,6.4c35.9-0.2,71.9-0.1,107.8-0.1c2.2,0,4.3,0,8.4,0c-3,2.4-4.6,3.7-6.3,4.9c-29.1,21.1-58.1,42.2-87.4,63
			c-4.3,3.1-5.3,5.6-3.6,10.7c11.4,34.2,22.5,68.6,33.7,102.9C353.4,386.9,354,388.8,355.1,392.3z"/>
	</g>
</g>
</svg>
